<svg width="32" height="32" viewBox="0 0 32 32" fill="none" xmlns="http://www.w3.org/2000/svg">
<path d="M8.00098 4.5H24.001C25.2829 4.5 26.5125 5.00959 27.4189 5.91602C28.3252 6.82235 28.8349 8.05132 28.835 9.33301V20C28.835 21.2819 28.3254 22.5115 27.4189 23.418C26.5125 24.3243 25.2828 24.833 24.001 24.833H17.5645L17.4453 24.9043L11.0957 28.7139C10.9764 28.7854 10.8412 28.8262 10.7021 28.832C10.5629 28.8378 10.4239 28.8087 10.2988 28.7471C10.1739 28.6855 10.0666 28.5933 9.98633 28.4795C9.90791 28.3682 9.85699 28.2395 9.83984 28.1045L9.83496 28V24.833H8.00098C6.76105 24.8329 5.56834 24.3565 4.66992 23.502C3.7745 22.6501 3.23971 21.4878 3.1748 20.2539L3.16797 19.9873V9.33301C3.16805 8.05125 3.67764 6.82236 4.58398 5.91602C5.49033 5.00967 6.71921 4.50009 8.00098 4.5ZM19.3164 15.5C18.8303 15.5048 18.3658 15.7027 18.0254 16.0498C17.7617 16.3191 17.447 16.5336 17.0996 16.6797C16.752 16.8258 16.378 16.9004 16.001 16.9004C15.6241 16.9003 15.2508 16.8257 14.9033 16.6797C14.5558 16.5336 14.2413 16.3191 13.9775 16.0498L13.9717 16.0449L13.8379 15.9248C13.5138 15.6612 13.1079 15.5149 12.6865 15.5137C12.2048 15.5123 11.7414 15.7009 11.3975 16.0381C11.0538 16.3752 10.8569 16.8341 10.8486 17.3154C10.8404 17.7969 11.0215 18.2626 11.3535 18.6113L11.3584 18.6162C11.9635 19.2337 12.6863 19.7246 13.4834 20.0596C14.2805 20.3945 15.1364 20.5673 16.001 20.5674C16.8656 20.5674 17.7224 20.3945 18.5195 20.0596C19.3165 19.7246 20.0385 19.2337 20.6436 18.6162C20.9837 18.2691 21.1727 17.8014 21.168 17.3154C21.1632 16.8293 20.9652 16.3648 20.6182 16.0244C20.271 15.6841 19.8025 15.4952 19.3164 15.5ZM12.668 10.167C12.1817 10.167 11.7159 10.3603 11.3721 10.7041C11.0283 11.0479 10.835 11.5138 10.835 12C10.835 12.4862 11.0283 12.9521 11.3721 13.2959C11.7159 13.6397 12.1817 13.833 12.668 13.833H12.6816C13.1677 13.8329 13.6338 13.6396 13.9775 13.2959C14.3212 12.9521 14.5146 12.4862 14.5146 12C14.5146 11.5138 14.3212 11.0479 13.9775 10.7041C13.6338 10.3604 13.1677 10.1671 12.6816 10.167H12.668ZM19.335 10.167C18.8487 10.167 18.3819 10.3603 18.0381 10.7041C17.6945 11.0479 17.501 11.5139 17.501 12C17.501 12.4861 17.6945 12.9521 18.0381 13.2959C18.3819 13.6397 18.8487 13.833 19.335 13.833H19.3477C19.8339 13.833 20.3007 13.6397 20.6445 13.2959C20.9881 12.9521 21.1816 12.4861 21.1816 12C21.1816 11.5139 20.9881 11.0479 20.6445 10.7041C20.3007 10.3603 19.8339 10.167 19.3477 10.167H19.335Z" fill="#6E63FF" stroke="#6E63FF"/>
</svg>
