<svg xmlns="http://www.w3.org/2000/svg" width="24" height="24" viewBox="0 0 24 24" fill="none">
    <path fill-rule="evenodd" clip-rule="evenodd" d="M12.4497 4.5H16.1497C19.8497 4.5 22.8497 7.5 22.8497 11.2V11.536C22.8497 14.808 20.4897 17.544 17.3897 18.067V17.067C17.3897 12.872 13.9897 9.472 9.79471 9.472H6.94971V7.794C6.94971 7.214 7.41971 6.744 7.99971 6.744H11.2197V5.729C11.2197 5.049 11.7697 4.5 12.4497 4.5ZM7.99971 8.744H9.79471C14.3897 8.744 18.1177 12.472 18.1177 17.067V18.106C18.1177 18.784 17.5687 19.333 16.8897 19.333V18.106C16.8897 18.106 16.8907 18.105 16.8907 18.105C16.8907 17.9 16.9147 17.701 16.9537 17.509C17.1667 17.509 17.3897 17.509 17.3897 17.509V18.106C17.1707 18.106 16.9607 18.106 16.7607 18.104C16.3687 19.167 15.3347 19.923 14.1207 19.924H12.0007L12.0007 19.923H9.79471C5.19971 19.923 1.47171 16.195 1.47171 11.6V10.561C1.47171 9.882 2.02071 9.333 2.69971 9.333V10.561C2.69971 10.767 2.67571 10.966 2.63671 11.157C2.42371 11.157 2.20071 11.157 2.20071 11.157V10.561C2.41971 10.561 2.62871 10.561 2.82871 10.563C3.21971 9.499 4.25471 8.744 5.46971 8.744H7.99971Z" fill="#FDD835"/>
    <path d="M11.2197 5.729V6.744H7.99971C7.41971 6.744 6.94971 7.214 6.94971 7.794V9.472H4.49971C2.56971 9.472 1.00071 11.042 1.00071 12.972V14.1C1.00071 16.03 2.56971 17.6 4.49971 17.6H7.99971C11.3137 17.6 14.0007 20.286 14.0007 23.6V23.001C14.0007 21.07 15.5687 19.501 17.4997 19.501H19.5007C21.4317 19.501 22.9997 17.931 22.9997 16.001V12.501C22.9997 8.082 19.4187 4.5 14.9997 4.5H12.4497C11.7697 4.5 11.2197 5.049 11.2197 5.729Z" fill="#4CAF50"/>
    <path d="M9.79471 9.472C13.9897 9.472 17.3897 12.872 17.3897 17.067V18.067C20.4897 17.544 22.8497 14.808 22.8497 11.536V11.2C22.8497 7.5 19.8497 4.5 16.1497 4.5H12.4497C11.7697 4.5 11.2197 5.049 11.2197 5.729V6.744H7.99971C7.41971 6.744 6.94971 7.214 6.94971 7.794V9.472H9.79471Z" fill="#29B6F6"/>
    <path d="M12.0007 19.923H14.1207C15.3347 19.923 16.3687 19.167 16.7607 18.104C16.9607 18.106 17.1707 18.106 17.3897 18.106V17.067C18.1177 12.472 14.3897 8.744 9.79471 8.744H7.99971H5.46971C4.25471 8.744 3.21971 9.499 2.82871 10.563C2.62871 10.561 2.41971 10.561 2.20071 10.561V11.157C2.20071 11.157 2.42371 11.157 2.63671 11.157C2.67571 10.966 2.69971 10.767 2.69971 10.561V9.333C2.02071 9.333 1.47171 9.882 1.47171 10.561V11.6C1.47171 16.195 5.19971 19.923 9.79471 19.923H12.0007V19.923Z" fill="#7E57C2"/>
    <defs>
        <pattern id="knowella_logo_gradient" patternContentUnits="objectBoundingBox" width="1" height="1">
            <use xlink:href="#image0_2_2" transform="scale(0.003125)"/>
        </pattern>
    </defs>
</svg>